<svg width="240" height="71" viewBox="0 0 240 71" fill="none" xmlns="http://www.w3.org/2000/svg">
<mask id="mask0_392_2047" style="mask-type:alpha" maskUnits="userSpaceOnUse" x="1" y="1" width="69" height="69">
<path fill-rule="evenodd" clip-rule="evenodd" d="M69.0473 35.0237C69.0473 53.8144 53.8144 69.0473 35.0237 69.0473C16.2329 69.0473 1 53.8144 1 35.0237C1 16.2329 16.2329 1 35.0237 1C53.8144 1 69.0473 16.2329 69.0473 35.0237ZM49.3136 35.0237C49.3136 42.9158 42.9158 49.3136 35.0237 49.3136C27.1315 49.3136 20.7337 42.9158 20.7337 35.0237C20.7337 27.1315 27.1315 20.7337 35.0237 20.7337C42.9158 20.7337 49.3136 27.1315 49.3136 35.0237ZM49.9941 25.1568C54.8797 25.1568 58.8402 21.1962 58.8402 16.3107C58.8402 11.4251 54.8797 7.4645 49.9941 7.4645C45.1085 7.4645 41.1479 11.4251 41.1479 16.3107C41.1479 21.1962 45.1085 25.1568 49.9941 25.1568Z" fill="url(#paint0_radial_392_2047)"/>
</mask>
<g mask="url(#mask0_392_2047)">
<mask id="mask1_392_2047" style="mask-type:alpha" maskUnits="userSpaceOnUse" x="1" y="1" width="69" height="69">
<path fill-rule="evenodd" clip-rule="evenodd" d="M69.0473 35.0237C69.0473 53.8144 53.8144 69.0473 35.0237 69.0473C16.2329 69.0473 1 53.8144 1 35.0237C1 16.2329 16.2329 1 35.0237 1C53.8144 1 69.0473 16.2329 69.0473 35.0237ZM49.3136 35.0237C49.3136 42.9158 42.9158 49.3136 35.0237 49.3136C27.1315 49.3136 20.7337 42.9158 20.7337 35.0237C20.7337 27.1315 27.1315 20.7337 35.0237 20.7337C42.9158 20.7337 49.3136 27.1315 49.3136 35.0237ZM49.9941 25.1568C54.8797 25.1568 58.8402 21.1962 58.8402 16.3107C58.8402 11.4251 54.8797 7.4645 49.9941 7.4645C45.1085 7.4645 41.1479 11.4251 41.1479 16.3107C41.1479 21.1962 45.1085 25.1568 49.9941 25.1568Z" fill="#D9D9D9"/>
</mask>
<g mask="url(#mask1_392_2047)">
<path d="M71.0888 -1.72189H-1.55176V70.9186H71.0888V-1.72189Z" fill="white"/>
<path d="M71.0888 -1.72189H-1.55176V70.9186H71.0888V-1.72189Z" fill="#FAFF02" fill-opacity="0.33"/>
<g filter="url(#filter0_f_392_2047)">
<path d="M85.0379 9.84616H4.91211V69.0473H85.0379V9.84616Z" fill="#FFE500"/>
<path d="M66.6653 -10.3979H3.8916V20.7337H66.6653V-10.3979Z" fill="#FF001F"/>
<path d="M62.0723 1H0.319336V80.2751H62.0723V1Z" fill="#18A0FB"/>
<path d="M81.9762 16.7877H34.7646V54.1938H81.9762V16.7877Z" fill="#FF00D6"/>
</g>
</g>
</g>
<mask id="mask2_392_2047" style="mask-type:alpha" maskUnits="userSpaceOnUse" x="86" y="22" width="149" height="34">
<path d="M97.9844 47.9218C90.9185 47.9218 86.3406 43.0121 86.3406 35.4155C86.3406 27.8852 91.0844 22.8761 98.1834 22.8761C103.922 22.8761 108.202 26.2266 109.031 31.4347H104.553C103.723 28.615 101.302 26.9564 98.0839 26.9564C93.6055 26.9564 90.7858 30.2073 90.7858 35.3823C90.7858 40.5242 93.6387 43.8415 98.0839 43.8415C101.368 43.8415 103.889 42.1165 104.685 39.4294H109.097C108.169 44.5381 103.723 47.9218 97.9844 47.9218ZM114.332 27.852C112.938 27.852 111.844 26.7573 111.844 25.3972C111.844 24.0371 112.938 22.9756 114.332 22.9756C115.659 22.9756 116.753 24.0371 116.753 25.3972C116.753 26.7573 115.659 27.852 114.332 27.852ZM112.308 47.5237V31.1362H116.355V47.5237H112.308ZM120.537 55.1203V31.1362H124.285L124.551 33.6242C125.546 31.7333 127.702 30.6386 130.19 30.6386C134.801 30.6386 137.853 33.9891 137.853 39.1309C137.853 44.2395 135.066 47.9549 130.19 47.9549C127.735 47.9549 125.612 46.9929 124.584 45.3343V55.1203H120.537ZM124.617 39.3299C124.617 42.2823 126.441 44.3059 129.228 44.3059C132.081 44.3059 133.773 42.2492 133.773 39.3299C133.773 36.4107 132.081 34.3208 129.228 34.3208C126.441 34.3208 124.617 36.3775 124.617 39.3299ZM145.123 47.5237H141.075V22.8429H145.156V33.2593C146.184 31.6669 148.108 30.6386 150.463 30.6386C154.511 30.6386 156.634 33.1929 156.634 37.4391V47.5237H152.586V38.4011C152.586 35.6477 151.226 34.3208 149.17 34.3208C146.615 34.3208 145.123 36.1121 145.123 38.5669V47.5237ZM167.941 47.9549C163.065 47.9549 159.648 44.4054 159.648 39.3299C159.648 34.1881 162.998 30.6386 167.809 30.6386C172.718 30.6386 175.836 33.9227 175.836 39.0314V40.2588L163.496 40.2919C163.795 43.178 165.321 44.6376 168.008 44.6376C170.23 44.6376 171.69 43.7751 172.154 42.216H175.903C175.206 45.7987 172.221 47.9549 167.941 47.9549ZM167.842 33.9559C165.453 33.9559 163.994 35.2496 163.596 37.7044H171.822C171.822 35.4487 170.263 33.9559 167.842 33.9559ZM189.359 31.0698V34.8184H187.866C184.947 34.8184 183.123 36.3775 183.123 39.5621V47.5237H179.075V31.1694H182.89L183.123 33.5578C183.819 31.9323 185.378 30.8376 187.568 30.8376C188.132 30.8376 188.696 30.904 189.359 31.0698ZM202.283 39.1641H196.942V47.5237H192.696V23.2742H202.283C207.159 23.2742 210.311 26.4588 210.311 31.2025C210.311 35.8799 207.126 39.1641 202.283 39.1641ZM201.453 27.0559H196.942V35.3823H201.387C204.306 35.3823 205.865 33.8232 205.865 31.1694C205.865 28.5155 204.273 27.0559 201.453 27.0559ZM217.514 47.9549C214.031 47.9549 211.907 45.9314 211.907 42.8463C211.907 39.8275 214.097 37.9367 217.978 37.6381L222.888 37.2732V36.9083C222.888 34.6857 221.561 33.79 219.504 33.79C217.116 33.79 215.789 34.7852 215.789 36.5102H212.339C212.339 32.9607 215.258 30.6386 219.703 30.6386C224.115 30.6386 226.835 33.027 226.835 37.5718V47.5237H223.286L222.987 45.102C222.291 46.7939 220.068 47.9549 217.514 47.9549ZM218.841 44.903C221.329 44.903 222.921 43.4102 222.921 40.8891V40.0266L219.504 40.2919C216.983 40.5242 216.021 41.3535 216.021 42.6804C216.021 44.1732 217.016 44.903 218.841 44.903ZM234.891 47.5237H230.878V22.8429H234.891V47.5237Z" fill="white"/>
</mask>
<g mask="url(#mask2_392_2047)">
<path d="M584.085 -250.097H-183.103V357.752H584.085V-250.097Z" fill="white"/>
</g>
<defs>
<filter id="filter0_f_392_2047" x="-26.8996" y="-37.6169" width="139.157" height="145.111" filterUnits="userSpaceOnUse" color-interpolation-filters="sRGB">
<feFlood flood-opacity="0" result="BackgroundImageFix"/>
<feBlend mode="normal" in="SourceGraphic" in2="BackgroundImageFix" result="shape"/>
<feGaussianBlur stdDeviation="13.6095" result="effect1_foregroundBlur_392_2047"/>
</filter>
<radialGradient id="paint0_radial_392_2047" cx="0" cy="0" r="1" gradientUnits="userSpaceOnUse" gradientTransform="translate(35.0237 35.0237) rotate(90) scale(34.0237)">
<stop offset="0.355" stop-color="#D9D9D9" stop-opacity="0"/>
<stop offset="0.83" stop-color="#929292" stop-opacity="0.7"/>
<stop offset="0.955" stop-color="#878787" stop-opacity="0.805882"/>
<stop offset="1" stop-color="#737373"/>
</radialGradient>
</defs>
</svg>
